<svg width="143" height="143" viewBox="0 0 143 143" fill="none" xmlns="http://www.w3.org/2000/svg">
<g clip-path="url(#clip0_6551_99)">
<path d="M131.763 0H10.5486C4.72277 0 0 4.72277 0 10.5486V131.763C0 137.589 4.72277 142.312 10.5486 142.312H131.763C137.589 142.312 142.312 137.589 142.312 131.763V10.5486C142.312 4.72277 137.589 0 131.763 0Z" fill="#F7F4F4"/>
<path d="M78.1968 14.9277C61.2614 14.9277 46.3349 23.4952 37.4905 36.5278C24.4891 45.3743 15.9238 60.3046 15.9238 77.2163C15.9238 104.37 37.9369 126.389 65.0837 126.389C82.0191 126.389 96.9456 117.821 105.79 104.789C118.819 95.942 127.385 81.0117 127.385 64.0721C127.357 36.9464 105.344 14.9277 78.1968 14.9277ZM71.724 116.733C46.3349 116.733 25.7446 96.1373 25.7446 70.7419C25.7446 45.3464 46.3349 24.751 71.724 24.751C97.1131 24.751 117.703 45.3464 117.703 70.7419C117.703 96.1373 97.1131 116.733 71.724 116.733Z" fill="#171616"/>
</g>
<defs>
<clipPath id="clip0_6551_99">
<rect width="143" height="143" fill="white"/>
</clipPath>
</defs>
</svg>
